<svg width="21" height="20" viewBox="0 0 21 20" fill="none" xmlns="http://www.w3.org/2000/svg">
<path fill-rule="evenodd" clip-rule="evenodd" d="M9.319 20H4.433C1.989 20 0 18.011 0 15.565V4.436C0 1.99 1.989 0 4.433 0H9.308C11.754 0 13.744 1.99 13.744 4.436V5.368C13.744 5.782 13.408 6.118 12.994 6.118C12.58 6.118 12.244 5.782 12.244 5.368V4.436C12.244 2.816 10.927 1.5 9.308 1.5H4.433C2.816 1.5 1.5 2.816 1.5 4.436V15.565C1.5 17.184 2.816 18.5 4.433 18.5H9.319C10.931 18.5 12.244 17.188 12.244 15.576V14.633C12.244 14.219 12.58 13.883 12.994 13.883C13.408 13.883 13.744 14.219 13.744 14.633V15.576C13.744 18.016 11.758 20 9.319 20Z" fill="black"/>
<mask id="mask0_1_3652" style="mask-type:luminance" maskUnits="userSpaceOnUse" x="6" y="9" width="15" height="2">
<path fill-rule="evenodd" clip-rule="evenodd" d="M6.99561 9.25H20.5365V10.75H6.99561V9.25Z" fill="white"/>
</mask>
<g mask="url(#mask0_1_3652)">
<path fill-rule="evenodd" clip-rule="evenodd" d="M19.7866 10.75H7.74561C7.33161 10.75 6.99561 10.414 6.99561 10C6.99561 9.586 7.33161 9.25 7.74561 9.25H19.7866C20.2006 9.25 20.5366 9.586 20.5366 10C20.5366 10.414 20.2006 10.75 19.7866 10.75Z" fill="black"/>
</g>
<mask id="mask1_1_3652" style="mask-type:luminance" maskUnits="userSpaceOnUse" x="16" y="6" width="5" height="8">
<path fill-rule="evenodd" clip-rule="evenodd" d="M16.1094 6.33545H20.5367V13.6662H16.1094V6.33545Z" fill="white"/>
</mask>
<g mask="url(#mask1_1_3652)">
<path fill-rule="evenodd" clip-rule="evenodd" d="M16.8591 13.6662C16.6671 13.6662 16.4741 13.5932 16.3281 13.4452C16.0361 13.1512 16.0371 12.6772 16.3301 12.3852L18.7241 10.0002L16.3301 7.6162C16.0371 7.3242 16.0351 6.8502 16.3281 6.5562C16.6201 6.2622 17.0941 6.2622 17.3881 6.5542L20.3161 9.4692C20.4581 9.6092 20.5371 9.8012 20.5371 10.0002C20.5371 10.1992 20.4581 10.3912 20.3161 10.5312L17.3881 13.4472C17.2421 13.5932 17.0501 13.6662 16.8591 13.6662Z" fill="black"/>
</g>
</svg>
